<svg xmlns="http://www.w3.org/2000/svg" xmlns:xlink="http://www.w3.org/1999/xlink" width="630" height="251" viewBox="0 0 630 251"><defs><style>.a{fill:#fff;stroke:#707070;}.b{clip-path:url(#a);}.c{fill:none;}.d{stroke-miterlimit:10;fill:url(#h);}.e{fill:url(#q);}.f,.g{stroke:none;}.g{fill:#000;}.h{filter:url(#r);}.i{filter:url(#o);}.j{filter:url(#l);}.k{filter:url(#i);}.l{filter:url(#f);}.m{filter:url(#d);}.n{filter:url(#b);}</style><clipPath id="a"><rect class="a" width="630" height="251" transform="translate(615 61.167)"/></clipPath><filter id="b" x="13.167" y="77.127" width="217.37" height="335.632" filterUnits="userSpaceOnUse"><feOffset dx="-2" dy="2" input="SourceAlpha"/><feGaussianBlur stdDeviation="5" result="c"/><feFlood flood-opacity="0.2"/><feComposite operator="in" in2="c"/><feComposite in="SourceGraphic"/></filter><filter id="d" x="347.459" y="77.127" width="285.374" height="335.632" filterUnits="userSpaceOnUse"><feOffset dx="-2" dy="2" input="SourceAlpha"/><feGaussianBlur stdDeviation="5" result="e"/><feFlood flood-opacity="0.2"/><feComposite operator="in" in2="e"/><feComposite in="SourceGraphic"/></filter><filter id="f" x="190.838" y="72.202" width="214.091" height="345.498" filterUnits="userSpaceOnUse"><feOffset dx="-2" dy="2" input="SourceAlpha"/><feGaussianBlur stdDeviation="5" result="g"/><feFlood flood-opacity="0.2"/><feComposite operator="in" in2="g"/><feComposite in="SourceGraphic"/></filter><linearGradient id="h" x1="0.5" y1="-0.031" x2="0.5" y2="0.964" gradientUnits="objectBoundingBox"><stop offset="0" stop-color="#ff4040"/><stop offset="0.429" stop-color="red"/><stop offset="1" stop-color="#e62200"/></linearGradient><filter id="i" x="-4.842" y="75.127" width="237.379" height="355.634" filterUnits="userSpaceOnUse"><feOffset dx="-15" dy="15" input="SourceAlpha"/><feGaussianBlur stdDeviation="10" result="j"/><feFlood flood-opacity="0.2"/><feComposite operator="in" in2="j"/><feComposite in="SourceGraphic"/></filter><filter id="l" x="172.831" y="70.202" width="234.098" height="365.505" filterUnits="userSpaceOnUse"><feOffset dx="-15" dy="15" input="SourceAlpha"/><feGaussianBlur stdDeviation="10" result="m"/><feFlood flood-opacity="0.2"/><feComposite operator="in" in2="m"/><feComposite in="SourceGraphic"/></filter><filter id="o" x="329.457" y="75.127" width="305.376" height="355.634" filterUnits="userSpaceOnUse"><feOffset dx="-15" dy="15" input="SourceAlpha"/><feGaussianBlur stdDeviation="10" result="p"/><feFlood flood-opacity="0.2"/><feComposite operator="in" in2="p"/><feComposite in="SourceGraphic"/></filter><linearGradient id="q" x1="0.5" y1="-0.681" x2="0.5" y2="3.824" gradientUnits="objectBoundingBox"><stop offset="0" stop-color="#ff8080"/><stop offset="0.543" stop-color="red"/><stop offset="0.648" stop-color="#f01400"/><stop offset="1" stop-color="#e62200"/></linearGradient><filter id="r" x="23.158" y="7.167" width="609.675" height="79.972" filterUnits="userSpaceOnUse"><feOffset dx="-2" dy="2" input="SourceAlpha"/><feGaussianBlur stdDeviation="5" result="s"/><feFlood flood-opacity="0.2"/><feComposite operator="in" in2="s"/><feComposite in="SourceGraphic"/></filter></defs><g class="b" transform="translate(-615 -61.167)"><g transform="translate(645.167 81.333)"><path class="c" d="M889.435,408.327V458.3l-9.994,10H299.77V418.32l9.991-9.993Z" transform="translate(-299.769 -408.327)"/><g class="n" transform="matrix(1, 0, 0, 1, -30.17, -20.17)"><path d="M487.139,479.568h-65.7l-10,9.994V502.7h3.287c10.836,0,19.708,7.229,19.708,23v99.139L372.832,479.568H309.76l-9.991,9.994V502.7h3.282c10.841,0,19.709,7.229,19.709,23V749.06a36.392,36.392,0,0,1-.27,4.523,9.618,9.618,0,0,1-9.363,8.5H309.76l-9.991,9.993V785.2h65.692l9.993-10V762.082h-3.283c-10.844,0-19.715-7.248-19.715-23.016V591.9l80.014,193.3h21.684l9.993-10V515.7a36.089,36.089,0,0,1,.311-4.812,9.422,9.422,0,0,1,9.32-8.19h3.368l9.992-10Z" transform="translate(-269.6 -389.44)"/></g><g class="m" transform="matrix(1, 0, 0, 1, -30.17, -20.17)"><path d="M820.186,489.562V502.7h3.281c10.84,0,18.4,7.229,15.444,23l-16.08,89.729L798.974,479.568H777.631l-9.993,9.994L745.28,615.349,727.693,515.7a35.617,35.617,0,0,1-.642-6.356,6.523,6.523,0,0,1,6.357-6.646h3.345l9.99-10V479.568H650.177l-10,9.994V502.7h3.28c10.849,0,21.031,7.229,23.663,23L713.1,785.2h21.354l10-10,22.354-125.86L790.954,785.2h21.022l10-10,46.31-259.5q.23-1.221.517-2.37A13.985,13.985,0,0,1,882.163,502.7h3.4l9.993-10V479.568H830.182Z" transform="translate(-275.72 -389.44)"/></g><g class="l" transform="matrix(1, 0, 0, 1, -30.17, -20.17)"><path d="M621.757,493.605c29.224,29.23,43.026,85.734,43.026,133.686s-13.8,104.47-43.026,133.7l-9.994,10c-12.166,11.829-26.6,19.061-44.018,19.061s-32.2-7.232-44.345-19.717c-28.916-28.915-42.707-85.413-42.707-133.046s13.792-104.12,42.707-133.024l10-9.994c12.147-12.493,26.924-19.716,44.344-19.716S609.594,481.776,621.757,493.605ZM600.595,637.288c0-80.807-4.931-119.895-18.4-133.686a19.843,19.843,0,0,0-14.451-5.918h-.1a13.035,13.035,0,0,0-11.98,8.377c-7.763,20.028-10.783,57.768-10.783,121.231,0,81.8,4.932,121.544,18.406,135.338a19.836,19.836,0,0,0,14.452,5.91h.1a12.838,12.838,0,0,0,11.79-8.16C597.525,740.435,600.595,702.04,600.595,637.288Z" transform="translate(-272.85 -389.35)"/></g><g class="k" transform="matrix(1, 0, 0, 1, -30.17, -20.17)"><g class="d" transform="translate(-269.79 -389.44)"><path class="f" d="M 463.3295288085938 774.2025146484375 L 443.3137512207031 774.2025146484375 L 353.5625915527344 557.3746337890625 L 351.6386413574219 557.757080078125 L 351.6386413574219 627.3818359375 L 351.6386413574219 739.0658569335938 C 351.6386413574219 742.9906005859375 352.1804809570312 746.5484619140625 353.2490844726562 749.6405639648438 C 354.2680053710938 752.5888061523438 355.7664794921875 755.1231079101562 357.7029113769531 757.1731567382812 C 359.5519714355469 759.1307983398438 361.7826843261719 760.6314086914062 364.3329467773438 761.6334228515625 C 366.7787475585938 762.5944213867188 369.4773254394531 763.0816040039062 372.353759765625 763.0816040039062 L 374.6366577148438 763.0816040039062 L 374.6366577148438 774.2025146484375 L 310.9430236816406 774.2025146484375 L 310.9430236816406 763.0816040039062 L 313.2268676757812 763.0816040039062 C 316.1026000976562 763.0816040039062 318.8004455566406 762.5943603515625 321.2454833984375 761.6333618164062 C 323.7949829101562 760.63134765625 326.02490234375 759.1306762695312 327.8733520507812 757.1730346679688 C 329.8090209960938 755.1229858398438 331.3069152832031 752.5886840820312 332.3254089355469 749.6404418945312 C 333.3935546875 746.5484008789062 333.9351806640625 742.9906005859375 333.9351806640625 739.0658569335938 L 333.9351806640625 627.3818359375 L 333.9351806640625 515.7047119140625 C 333.9351806640625 511.77978515625 333.3935546875 508.2226867675781 332.3253479003906 505.1322631835938 C 331.3068542480469 502.1857299804688 329.8088684082031 499.6533508300781 327.8729248046875 497.6055603027344 C 326.0247192382812 495.6504821777344 323.7947082519531 494.1519775390625 321.2449035644531 493.1517028808594 C 318.8005676269531 492.1928100585938 316.1029052734375 491.7066345214844 313.2268676757812 491.7066345214844 L 310.9430236816406 491.7066345214844 L 310.9430236816406 480.5680847167969 L 372.3526306152344 480.5680847167969 L 443.6976623535156 648.7945556640625 L 445.6182861328125 648.4041748046875 L 445.6182861328125 515.7047119140625 C 445.6182861328125 511.7799377441406 445.0764770507812 508.2228088378906 444.0079040527344 505.1321716308594 C 442.9891967773438 502.185791015625 441.4909362792969 499.6534423828125 439.5547790527344 497.6054992675781 C 437.7064819335938 495.6505126953125 435.4766235351562 494.1520385742188 432.9271850585938 493.1517333984375 C 430.4832763671875 492.1928100585938 427.7865600585938 491.7066345214844 424.9118957519531 491.7066345214844 L 422.6250610351562 491.7066345214844 L 422.6250610351562 480.5680847167969 L 486.3216552734375 480.5680847167969 L 486.3216552734375 491.7066345214844 L 484.0357971191406 491.7066345214844 C 481.160888671875 491.7066345214844 478.4640502929688 492.1928100585938 476.0201416015625 493.1517333984375 C 473.4706726074219 494.1520385742188 471.2408142089844 495.6505126953125 469.3926086425781 497.6054992675781 C 467.45654296875 499.6534423828125 465.9583740234375 502.185791015625 464.9397583007812 505.1322021484375 C 463.8712768554688 508.2227783203125 463.3295288085938 511.7798767089844 463.3295288085938 515.7047119140625 L 463.3295288085938 774.2025146484375 Z"/><path class="g" d="M 311.9430236816406 481.568115234375 L 311.9430236816406 490.7066650390625 L 313.2268676757812 490.7066650390625 C 316.2283935546875 490.7066650390625 319.0489196777344 491.216064453125 321.6100769042969 492.2208251953125 C 324.2979125976562 493.2752075195312 326.6495361328125 494.8557739257812 328.599609375 496.9185791015625 C 330.6337890625 499.0703125 332.2052917480469 501.723876953125 333.2704467773438 504.8055419921875 C 334.3750610351562 508.0013427734375 334.9351501464844 511.6683349609375 334.9351501464844 515.7047119140625 L 334.9351501464844 627.3818359375 L 334.9351501464844 739.0658569335938 C 334.9351501464844 743.1019897460938 334.3751220703125 746.7696533203125 333.2705688476562 749.9669799804688 C 332.2054443359375 753.0502319335938 330.6341857910156 755.7056884765625 328.6004638671875 757.8595581054688 C 326.6502075195312 759.925048828125 324.2987060546875 761.5078125 321.6112365722656 762.5640869140625 C 319.0491943359375 763.571044921875 316.228271484375 764.0816040039062 313.2268676757812 764.0816040039062 L 311.9430236816406 764.0816040039062 L 311.9430236816406 773.2025146484375 L 373.6366577148438 773.2025146484375 L 373.6366577148438 764.0816040039062 L 372.3537292480469 764.0816040039062 C 369.3516540527344 764.0816040039062 366.530029296875 763.571044921875 363.96728515625 762.5641479492188 C 361.2790222167969 761.5079345703125 358.9268188476562 759.9251708984375 356.9759521484375 757.85986328125 C 354.94140625 755.7059326171875 353.3695373535156 753.0504760742188 352.303955078125 749.9672241210938 C 351.1989135742188 746.769775390625 350.6386108398438 743.10205078125 350.6386108398438 739.0658569335938 L 350.6386108398438 627.3818359375 L 350.6386108398438 557.757080078125 L 350.6386108398438 547.6959838867188 L 354.486572265625 556.9921264648438 L 443.9820861816406 773.2025146484375 L 462.3294982910156 773.2025146484375 L 462.3294982910156 515.7047119140625 C 462.3294982910156 511.6683959960938 462.8897094726562 508.0014038085938 463.99462890625 504.805419921875 C 465.0599365234375 501.723876953125 466.6316223144531 499.0703735351562 468.6658935546875 496.9185180664062 C 470.6159973144531 494.8558349609375 472.9674072265625 493.2752685546875 475.6548767089844 492.2208862304688 C 478.2156677246094 491.2161254882812 481.035400390625 490.7066650390625 484.0357971191406 490.7066650390625 L 485.3216552734375 490.7066650390625 L 485.3216552734375 481.568115234375 L 423.6250610351562 481.568115234375 L 423.6250610351562 490.7066650390625 L 424.9118957519531 490.7066650390625 C 427.9120788574219 490.7066650390625 430.731689453125 491.2161254882812 433.2924499511719 492.2208862304688 C 435.9798583984375 493.2753295898438 438.3313293457031 494.8558349609375 440.2814025878906 496.9185180664062 C 442.3158264160156 499.0703735351562 443.8875732421875 501.723876953125 444.9530029296875 504.805419921875 C 446.0579833984375 508.0014038085938 446.6182861328125 511.66845703125 446.6182861328125 515.7047119140625 L 446.6182861328125 648.4041748046875 L 446.6182861328125 658.2424926757812 L 442.7770385742188 649.18505859375 L 371.6904907226562 481.568115234375 L 311.9430236816406 481.568115234375 M 309.9430236816406 479.568115234375 L 373.0147094726562 479.568115234375 L 444.6182861328125 648.4041748046875 L 444.6182861328125 515.7047119140625 C 444.6182861328125 499.936279296875 435.7466125488281 492.7066650390625 424.9118957519531 492.7066650390625 L 421.6250610351562 492.7066650390625 L 421.6250610351562 479.568115234375 L 487.3216552734375 479.568115234375 L 487.3216552734375 492.7066650390625 L 484.0357971191406 492.7066650390625 C 473.2001037597656 492.7066650390625 464.3294982910156 499.936279296875 464.3294982910156 515.7047119140625 L 464.3294982910156 775.2025146484375 L 442.6453552246094 775.2025146484375 L 352.6386108398438 557.757080078125 L 352.6386108398438 627.3818359375 L 352.6386108398438 739.0658569335938 C 352.6386108398438 754.833251953125 361.51025390625 762.0816040039062 372.3537292480469 762.0816040039062 L 375.6366577148438 762.0816040039062 L 375.6366577148438 775.2025146484375 L 309.9430236816406 775.2025146484375 L 309.9430236816406 762.0816040039062 L 313.2268676757812 762.0816040039062 C 324.0675048828125 762.0816040039062 332.9351501464844 754.833251953125 332.9351501464844 739.0658569335938 L 332.9351501464844 627.3818359375 L 332.9351501464844 515.7047119140625 C 332.9351501464844 499.936279296875 324.0675048828125 492.7066650390625 313.2268676757812 492.7066650390625 L 309.9430236816406 492.7066650390625 L 309.9430236816406 479.568115234375 Z"/></g></g><g class="j" transform="matrix(1, 0, 0, 1, -30.17, -20.17)"><g class="d" transform="translate(-273.04 -389.35)"><path class="f" d="M 577.9247436523438 779.0578002929688 C 561.5101928710938 779.0578002929688 546.8316650390625 772.5248413085938 534.2969970703125 759.6403198242188 L 534.2921752929688 759.6354370117188 L 534.287353515625 759.6305541992188 C 527.390380859375 752.733642578125 521.1000366210938 743.9692993164062 515.591064453125 733.5810546875 C 510.4315185546875 723.8517456054688 505.972900390625 712.7384643554688 502.3389892578125 700.5498657226562 C 498.9009399414062 689.01806640625 496.2520141601562 676.7116088867188 494.4657897949219 663.9722900390625 C 492.7420349121094 651.6781616210938 491.8679809570312 639.3369750976562 491.8679809570312 627.2916259765625 C 491.8679809570312 615.2501831054688 492.7420349121094 602.9119873046875 494.4657897949219 590.6197509765625 C 496.2520751953125 577.8818969726562 498.9009704589844 565.5767822265625 502.3389892578125 554.0463256835938 C 505.9730224609375 541.8582763671875 510.4316711425781 530.7462158203125 515.5910034179688 521.0187377929688 C 521.1001586914062 510.6317138671875 527.3905029296875 501.8698425292969 534.287109375 494.9764099121094 L 534.292236328125 494.9713745117188 L 534.2972412109375 494.9662170410156 C 546.8214111328125 482.0845642089844 561.4998168945312 475.5530395507812 577.9247436523438 475.5530395507812 C 582.1198120117188 475.5530395507812 586.2583618164062 475.9873352050781 590.2255859375 476.8439331054688 C 594.0659790039062 477.6730651855469 597.8558959960938 478.9217224121094 601.4900512695312 480.55517578125 C 605.0053100585938 482.1352233886719 608.475830078125 484.1206970214844 611.8052978515625 486.4564514160156 C 615.017822265625 488.710205078125 618.191162109375 491.354736328125 621.2373657226562 494.3167724609375 C 628.2086181640625 501.290283203125 634.5575561523438 510.1165466308594 640.1090087890625 520.5515747070312 C 645.3104248046875 530.3287963867188 649.8003540039062 541.4861450195312 653.453857421875 553.7138671875 C 656.9097290039062 565.2802124023438 659.5704956054688 577.6307373046875 661.3623046875 590.4224243164062 C 663.0897827148438 602.7554321289062 663.9656982421875 615.1600952148438 663.9656982421875 627.2916259765625 C 663.9656982421875 639.4240112304688 663.0897827148438 651.8297729492188 661.3623046875 664.1642456054688 C 659.5704956054688 676.9575805664062 656.9097290039062 689.3097534179688 653.453857421875 700.8776245117188 C 649.8002319335938 713.1072387695312 645.3104248046875 724.2661743164062 640.1089477539062 734.0445556640625 C 634.55810546875 744.4798583984375 628.2088623046875 753.307373046875 621.2387084960938 760.2809448242188 C 618.1915893554688 763.2440185546875 615.0175170898438 765.8898315429688 611.8051147460938 768.1445922851562 C 608.47509765625 770.4818115234375 605.0045166015625 772.4686279296875 601.48974609375 774.0498657226562 C 597.8551025390625 775.68505859375 594.0652465820312 776.93505859375 590.225341796875 777.76513671875 C 586.2576904296875 778.6228637695312 582.1192016601562 779.0578002929688 577.9247436523438 779.0578002929688 Z M 577.9247436523438 486.6905212402344 C 571.9231567382812 486.6905212402344 567.1151733398438 488.5484924316406 562.7938842773438 492.5376892089844 L 562.77490234375 492.55517578125 L 562.7568359375 492.5736999511719 C 559.2335205078125 496.180419921875 556.3579711914062 501.3240051269531 553.9658203125 508.2983093261719 C 551.5767822265625 515.2633666992188 549.6990356445312 523.9635620117188 548.2251586914062 534.8960571289062 C 545.3876953125 555.9437866210938 544.0661010742188 585.3031616210938 544.0661010742188 627.2916259765625 C 544.0661010742188 669.662841796875 545.3875732421875 699.311279296875 548.2249755859375 720.5970458984375 C 549.6995849609375 731.6593627929688 551.5770874023438 740.4558715820312 553.9647827148438 747.4892578125 C 556.359130859375 754.542236328125 559.2350463867188 759.7233276367188 562.7568359375 763.3285522460938 L 562.7610473632812 763.3328247070312 L 562.7652587890625 763.3370361328125 C 564.8118896484375 765.3826904296875 567.1458129882812 766.9472045898438 569.7021484375 767.9872436523438 C 572.2339477539062 769.0172119140625 575.0004272460938 769.5394897460938 577.9247436523438 769.5394897460938 C 580.942138671875 769.5394897460938 583.5849609375 769.0730590820312 586.0042724609375 768.113525390625 C 588.5606689453125 767.099609375 590.87353515625 765.5372314453125 593.0751953125 763.3370971679688 C 596.6009521484375 759.8150024414062 599.4793090820312 754.6931762695312 601.8746948242188 747.6791381835938 C 604.262451171875 740.6873779296875 606.1397705078125 731.9111328125 607.6140747070312 720.8489379882812 C 610.450439453125 699.5659790039062 611.771484375 669.8375244140625 611.771484375 627.2916259765625 C 611.771484375 544.3523559570312 606.5319213867188 506.67431640625 593.0836791992188 492.9065246582031 L 593.0799560546875 492.9026794433594 L 593.0761108398438 492.89892578125 C 591.0335693359375 490.8522338867188 588.6991577148438 489.2859191894531 586.1376953125 488.2434997558594 C 583.6056518554688 487.2130432128906 580.8424682617188 486.6905212402344 577.9247436523438 486.6905212402344 Z"/><path class="g" d="M 577.9247436523438 778.0578002929688 C 582.0482788085938 778.0578002929688 586.11572265625 777.6304321289062 590.0140380859375 776.7877197265625 C 593.7855834960938 775.9723510742188 597.508544921875 774.744384765625 601.0794677734375 773.137939453125 C 604.5368041992188 771.58251953125 607.9521484375 769.6271362304688 611.2305908203125 767.3260498046875 C 614.3975219726562 765.103271484375 617.52783203125 762.4939575195312 620.5350952148438 759.5702514648438 C 627.4342651367188 752.6671752929688 633.722412109375 743.9215087890625 639.22607421875 733.574951171875 C 644.396484375 723.8549194335938 648.8610229492188 712.7576904296875 652.4956665039062 700.5914306640625 C 655.9371948242188 689.0716552734375 658.587158203125 676.7691040039062 660.3719482421875 664.0255737304688 C 662.093017578125 651.7368774414062 662.9656982421875 639.3778076171875 662.9656982421875 627.2916259765625 C 662.9656982421875 615.2063598632812 662.093017578125 602.848388671875 660.3719482421875 590.5611572265625 C 658.587158203125 577.8192138671875 655.9371948242188 565.518310546875 652.4957275390625 554.0001831054688 C 648.8611450195312 541.8357543945312 644.3966064453125 530.7401123046875 639.2261352539062 521.021240234375 C 633.7222290039062 510.675537109375 627.4334106445312 501.9302368164062 620.53369140625 495.02734375 C 617.527587890625 492.1049499511719 614.397705078125 489.4966735839844 611.23095703125 487.2750854492188 C 607.953125 484.9754943847656 604.537841796875 483.0215148925781 601.080078125 481.46728515625 C 597.5096435546875 479.8625183105469 593.7866821289062 478.6358337402344 590.0145263671875 477.8213806152344 C 586.1165161132812 476.9797973632812 582.0489501953125 476.5530395507812 577.9247436523438 476.5530395507812 C 561.7801513671875 476.5530395507812 547.3429565429688 482.982666015625 535.01416015625 495.6632995605469 L 535.0042114257812 495.6735534667969 L 534.9940795898438 495.6836547851562 C 528.1678466796875 502.5066833496094 521.9369506835938 511.1882629394531 516.4744262695312 521.4873046875 C 511.345947265625 531.1566162109375 506.9125366210938 542.2071533203125 503.2973327636719 554.33203125 C 499.8736267089844 565.8146362304688 497.2354431152344 578.0703125 495.4561157226562 590.7586059570312 C 493.7388000488281 603.0050659179688 492.8679809570312 615.2965087890625 492.8679809570312 627.2916259765625 C 492.8679809570312 639.2906494140625 493.7388000488281 651.5851440429688 495.4561157226562 663.8334350585938 C 497.2353820800781 676.5232543945312 499.87353515625 688.7802734375 503.2973327636719 700.26416015625 C 506.9124145507812 712.3896484375 511.3458251953125 723.44140625 516.4744873046875 733.112548828125 C 521.9368896484375 743.4129028320312 528.1678466796875 752.096923828125 534.994384765625 758.9234619140625 L 535.004150390625 758.9331665039062 L 535.0137329101562 758.9430541992188 C 547.3530883789062 771.6266479492188 561.7904052734375 778.0578002929688 577.9247436523438 778.0578002929688 M 577.9247436523438 485.6905517578125 C 580.9723510742188 485.6905517578125 583.8623657226562 486.2378234863281 586.5146484375 487.3172607421875 C 589.2006225585938 488.4103698730469 591.6463623046875 490.0506286621094 593.783935546875 492.1925048828125 L 593.7915649414062 492.2000732421875 L 593.7990112304688 492.2077941894531 C 600.9401245117188 499.5185546875 605.644775390625 513.132568359375 608.6048583984375 535.0518798828125 C 611.447509765625 556.1018676757812 612.771484375 585.4116821289062 612.771484375 627.2916259765625 C 612.771484375 669.8827514648438 611.4476318359375 699.6531982421875 608.6052856445312 720.9810180664062 C 605.6417236328125 743.2186279296875 600.931396484375 756.9024047851562 593.7821044921875 764.04443359375 C 589.347900390625 768.4756469726562 584.30908203125 770.5394897460938 577.9247436523438 770.5394897460938 C 574.87060546875 770.5394897460938 571.9773559570312 769.992431640625 569.3252563476562 768.9135131835938 C 566.644775390625 767.8229370117188 564.1997680664062 766.1846923828125 562.0582885742188 764.0443115234375 L 562.0498046875 764.035888671875 L 562.04150390625 764.02734375 C 554.9024658203125 756.71923828125 550.197265625 742.9609375 547.2337646484375 720.7291870117188 C 544.3904418945312 699.3985595703125 543.0661010742188 669.7081298828125 543.0661010742188 627.2916259765625 C 543.0661010742188 585.25732421875 544.3905639648438 555.8555297851562 547.2341918945312 534.762451171875 C 550.1929321289062 512.8153076171875 554.8980102539062 499.1875 562.04150390625 491.8748779296875 L 562.0775756835938 491.8379211425781 L 562.1156005859375 491.8028869628906 C 566.6329345703125 487.6327819824219 571.6564331054688 485.6905517578125 577.9247436523438 485.6905517578125 M 577.9247436523438 780.0578002929688 C 560.50439453125 780.0578002929688 545.7268676757812 772.8232421875 533.5802001953125 760.337646484375 C 504.6644592285156 731.4219970703125 490.8679809570312 674.9297485351562 490.8679809570312 627.2916259765625 C 490.8679809570312 579.6701049804688 504.6644592285156 523.171142578125 533.5802001953125 494.2691345214844 C 545.7268676757812 481.7757873535156 560.50439453125 474.5530395507812 577.9247436523438 474.5530395507812 C 595.3350219726562 474.5530395507812 609.7766723632812 481.7757873535156 621.9401245117188 493.6052856445312 C 651.164306640625 522.8353271484375 664.9656982421875 579.3392333984375 664.9656982421875 627.2916259765625 C 664.9656982421875 675.2470092773438 651.164306640625 731.7616577148438 621.9401245117188 760.9937133789062 C 609.7766723632812 772.8232421875 595.3350219726562 780.0578002929688 577.9247436523438 780.0578002929688 Z M 577.9247436523438 487.6905517578125 C 572.3340454101562 487.6905517578125 567.7390747070312 489.3335571289062 563.47216796875 493.2724609375 C 549.9977416992188 507.0659484863281 545.0661010742188 546.158447265625 545.0661010742188 627.2916259765625 C 545.0661010742188 709.0965576171875 549.9977416992188 748.8361206054688 563.47216796875 762.6297607421875 C 567.4109497070312 766.5665893554688 572.3340454101562 768.5394897460938 577.9247436523438 768.5394897460938 C 583.4966430664062 768.5394897460938 588.1005249023438 766.8946533203125 592.3683471679688 762.6297607421875 C 605.8427734375 749.1691284179688 610.771484375 709.4351806640625 610.771484375 627.2916259765625 C 610.771484375 546.4865112304688 605.8427734375 507.3999328613281 592.3683471679688 493.6052856445312 C 588.434326171875 489.6634216308594 583.4966430664062 487.6905517578125 577.9247436523438 487.6905517578125 Z"/></g></g><g class="i" transform="matrix(1, 0, 0, 1, -30.17, -20.17)"><g class="d" transform="translate(-275.9 -389.44)"><path class="f" d="M 821.3175048828125 774.2025146484375 L 801.9724731445312 774.2025146484375 L 773.8593139648438 616.0411376953125 L 771.8901977539062 616.041259765625 L 743.7985229492188 774.2025146484375 L 724.1217041015625 774.2025146484375 L 678.28271484375 515.5302124023438 C 677.6300659179688 511.6219787597656 676.49365234375 508.0781860351562 674.9055786132812 505.0003967285156 C 673.3994140625 502.0814208984375 671.4851684570312 499.5736083984375 669.2158203125 497.5466918945312 C 667.0537109375 495.615478515625 664.58740234375 494.1340942382812 661.8853149414062 493.1437072753906 C 659.2835693359375 492.1901245117188 656.5081787109375 491.7066345214844 653.6360473632812 491.7066345214844 L 651.3599243164062 491.7066345214844 L 651.3599243164062 480.5680847167969 L 745.9256591796875 480.5680847167969 L 745.9256591796875 491.7066345214844 L 743.6505737304688 491.7066345214844 C 737.75 491.7066345214844 733.0277099609375 493.6375732421875 729.9942016601562 497.290771484375 C 728.2724609375 499.3642272949219 727.1273193359375 501.9593811035156 726.5906982421875 505.0041198730469 C 726.0331420898438 508.1674194335938 726.1347045898438 511.8280334472656 726.8924560546875 515.8836059570312 L 748.5728149414062 638.7243041992188 L 750.5421752929688 638.7254638671875 L 778.6522216796875 480.5680847167969 L 798.317138671875 480.5680847167969 L 826.0927734375 638.7234497070312 L 828.06201171875 638.726806640625 L 850.0714111328125 515.8853759765625 C 850.8359985351562 511.8115844726562 850.938720703125 508.1327514648438 850.3768310546875 504.9507751464844 C 849.8380737304688 501.8995971679688 848.69140625 499.2997741699219 846.96875 497.2235412597656 C 843.9741821289062 493.6143493652344 839.3663940429688 491.7066345214844 833.6435546875 491.7066345214844 L 831.3645629882812 491.7066345214844 L 831.3645629882812 480.5680847167969 L 894.7361450195312 480.5680847167969 L 894.7361450195312 491.7066345214844 L 892.4502563476562 491.7066345214844 C 886.550048828125 491.7066345214844 881.1505126953125 493.7250061035156 876.8353881835938 497.5436096191406 C 874.5498657226562 499.566162109375 872.604248046875 502.0713195800781 871.0525512695312 504.9894714355469 C 869.4183349609375 508.0627746582031 868.2171630859375 511.6058654785156 867.482421875 515.520263671875 L 867.4816284179688 515.5245971679688 L 867.4807739257812 515.5289916992188 L 821.3175048828125 774.2025146484375 Z"/><path class="g" d="M 652.3599243164062 481.568115234375 L 652.3599243164062 490.7066650390625 L 653.6360473632812 490.7066650390625 C 656.6259155273438 490.7066650390625 659.51708984375 491.210693359375 662.2294311523438 492.204833984375 C 665.0505981445312 493.2388305664062 667.6253051757812 494.7852172851562 669.8820190429688 496.8009033203125 C 672.2427368164062 498.9095458984375 674.23193359375 501.513916015625 675.7942504882812 504.5418701171875 C 677.4295043945312 507.7111206054688 678.5985717773438 511.3524169921875 679.26904296875 515.3651123046875 L 724.9600830078125 773.2025146484375 L 742.96044921875 773.2025146484375 L 770.9055786132812 615.8663330078125 L 772.8740234375 604.7837524414062 L 774.8438720703125 615.8660888671875 L 802.8103637695312 773.2025146484375 L 820.4801635742188 773.2025146484375 L 866.4963989257812 515.3533325195312 L 866.4979248046875 515.3445434570312 L 866.4996337890625 515.3357543945312 C 867.2530517578125 511.3217163085938 868.4878540039062 507.6828002929688 870.1696166992188 504.5199584960938 C 871.777587890625 501.4959106445312 873.7973022460938 498.8967895507812 876.1726684570312 496.7947998046875 C 878.4485473632812 494.78076171875 881.0326538085938 493.236328125 883.8533935546875 492.2044067382812 C 886.5698852539062 491.2105712890625 889.4623413085938 490.7066650390625 892.4502563476562 490.7066650390625 L 893.7361450195312 490.7066650390625 L 893.7361450195312 481.568115234375 L 832.3645629882812 481.568115234375 L 832.3645629882812 490.7066650390625 L 833.6435546875 490.7066650390625 C 836.541259765625 490.7066650390625 839.1964721679688 491.1825561523438 841.5355834960938 492.1212158203125 C 844.0216064453125 493.1188354492188 846.1085205078125 494.6206665039062 847.7383422851562 496.5850219726562 C 849.5731811523438 498.7965087890625 850.792236328125 501.5526733398438 851.3616333007812 504.77685546875 C 851.9443359375 508.076904296875 851.8411865234375 511.8748168945312 851.0550537109375 516.0657958984375 L 829.04638671875 638.9031982421875 L 827.0580444335938 650.000732421875 L 825.1078491210938 638.8964233398438 L 797.4774169921875 481.568115234375 L 779.4901733398438 481.568115234375 L 751.5266723632812 638.9004516601562 L 749.5505981445312 650.0184326171875 L 747.5880126953125 638.8981323242188 L 725.9083862304688 516.0614624023438 C 725.1294555664062 511.8895874023438 725.0276489257812 508.111083984375 725.6058959960938 504.83056640625 C 726.173095703125 501.612548828125 727.3906860351562 498.86083984375 729.224853515625 496.6519165039062 C 732.4544677734375 492.7625122070312 737.4428100585938 490.7066650390625 743.6505737304688 490.7066650390625 L 744.9256591796875 490.7066650390625 L 744.9256591796875 481.568115234375 L 652.3599243164062 481.568115234375 M 650.3599243164062 479.568115234375 L 746.9256591796875 479.568115234375 L 746.9256591796875 492.7066650390625 L 743.6505737304688 492.7066650390625 C 732.49072265625 492.7066650390625 724.92822265625 499.936279296875 727.8763427734375 515.7047119140625 L 749.5575561523438 638.5504760742188 L 777.8142700195312 479.568115234375 L 799.1567993164062 479.568115234375 L 827.0776977539062 638.5504760742188 L 849.087890625 515.7047119140625 C 852.0487060546875 499.936279296875 844.4841918945312 492.7066650390625 833.6435546875 492.7066650390625 L 830.3645629882812 492.7066650390625 L 830.3645629882812 479.568115234375 L 895.7361450195312 479.568115234375 L 895.7361450195312 492.7066650390625 L 892.4502563476562 492.7066650390625 C 881.5980224609375 492.7066650390625 871.425048828125 499.936279296875 868.4652709960938 515.7047119140625 L 822.1548461914062 775.2025146484375 L 801.134521484375 775.2025146484375 L 772.874755859375 616.2161254882812 L 744.6365356445312 775.2025146484375 L 723.2833251953125 775.2025146484375 L 677.2980346679688 515.7047119140625 C 674.6671142578125 499.936279296875 664.4873657226562 492.7066650390625 653.6360473632812 492.7066650390625 L 650.3599243164062 492.7066650390625 L 650.3599243164062 479.568115234375 Z"/></g></g><g class="h" transform="matrix(1, 0, 0, 1, -30.17, -20.17)"><g class="e" transform="translate(40.16 20.17)"><path class="f" d="M 578.6751098632812 48.97172546386719 L 0.9999834895133972 48.97172546386719 L 0.9999834895133972 1.000011324882507 L 578.6751098632812 1.000011324882507 L 578.6751098632812 48.97172546386719 Z"/><path class="g" d="M 2 2.000022888183594 L 2 47.97171401977539 L 577.6751098632812 47.97171401977539 L 577.6751098632812 2.000022888183594 L 2 2.000022888183594 M 0 2.288818359375e-05 L 579.6751098632812 2.288818359375e-05 L 579.6751098632812 49.97171401977539 L 0 49.97171401977539 L 0 2.288818359375e-05 Z"/></g></g></g></g></svg>